<svg width="7" height="9" viewBox="0 0 7 9" fill="none" xmlns="http://www.w3.org/2000/svg">
<path d="M6.076 3.954C6.11333 4.08467 6.132 4.22 6.132 4.36C6.132 4.49067 6.11333 4.63067 6.076 4.78C6.02933 4.836 5.614 5.23733 4.83 5.984C4.046 6.72133 3.56533 7.16933 3.388 7.328C3.04267 7.664 2.52 8.056 1.82 8.504L0.98 7.552C2.8 5.75067 3.906 4.67733 4.298 4.332L4.06 4.122L1.134 1.098L1.82 0.16C2.50133 0.598667 3.09867 1.056 3.612 1.532C4.12533 2.008 4.94667 2.81533 6.076 3.954Z" fill="white"/>
</svg>
